<mxfile host="app.diagrams.net" modified="2021-10-07T03:35:41.075Z" agent="5.0 (Macintosh; Intel Mac OS X 10_15_7) AppleWebKit/537.36 (KHTML, like Gecko) Chrome/94.0.4606.61 Safari/537.36" etag="NmLa3MJel8DfeReN67RY" version="15.3.3" type="github">
  <diagram id="z3INYqTiJihS4eR_vdnP" name="Page-1">
    <mxGraphModel dx="1426" dy="769" grid="1" gridSize="10" guides="1" tooltips="1" connect="1" arrows="1" fold="1" page="1" pageScale="1" pageWidth="827" pageHeight="1169" math="0" shadow="0">
      <root>
        <mxCell id="0" />
        <mxCell id="1" parent="0" />
        <mxCell id="JMKbWyHFVlR689hvUI58-1" value="AbstractOwnableSynchronizer&lt;br&gt;(A)" style="rounded=0;whiteSpace=wrap;html=1;hachureGap=4;pointerEvents=0;fontSize=14;fillColor=#fff2cc;strokeColor=#d6b656;" parent="1" vertex="1">
          <mxGeometry x="500" y="110" width="210" height="40" as="geometry" />
        </mxCell>
        <mxCell id="JMKbWyHFVlR689hvUI58-3" style="edgeStyle=none;curved=1;rounded=0;orthogonalLoop=1;jettySize=auto;html=1;exitX=0.5;exitY=0;exitDx=0;exitDy=0;entryX=0.5;entryY=1;entryDx=0;entryDy=0;fontSize=14;endArrow=classic;startSize=8;endSize=8;sourcePerimeterSpacing=8;targetPerimeterSpacing=8;endFill=1;" parent="1" source="JMKbWyHFVlR689hvUI58-2" target="JMKbWyHFVlR689hvUI58-1" edge="1">
          <mxGeometry relative="1" as="geometry" />
        </mxCell>
        <mxCell id="JMKbWyHFVlR689hvUI58-2" value="AbstractQueuedSynchronizer&lt;br&gt;(A)" style="rounded=0;whiteSpace=wrap;html=1;hachureGap=4;pointerEvents=0;fontSize=14;fillColor=#fff2cc;strokeColor=#d6b656;" parent="1" vertex="1">
          <mxGeometry x="500" y="200" width="210" height="40" as="geometry" />
        </mxCell>
        <mxCell id="JMKbWyHFVlR689hvUI58-5" style="edgeStyle=orthogonalEdgeStyle;rounded=0;orthogonalLoop=1;jettySize=auto;html=1;exitX=0.5;exitY=0;exitDx=0;exitDy=0;entryX=0.5;entryY=1;entryDx=0;entryDy=0;fontSize=14;endArrow=classic;endFill=1;startSize=8;endSize=8;sourcePerimeterSpacing=8;targetPerimeterSpacing=8;" parent="1" source="JMKbWyHFVlR689hvUI58-4" target="JMKbWyHFVlR689hvUI58-2" edge="1">
          <mxGeometry relative="1" as="geometry" />
        </mxCell>
        <mxCell id="JMKbWyHFVlR689hvUI58-4" value="$.Sync&lt;br&gt;(A)" style="rounded=0;whiteSpace=wrap;html=1;hachureGap=4;pointerEvents=0;fontSize=14;fillColor=#fff2cc;strokeColor=#d6b656;" parent="1" vertex="1">
          <mxGeometry x="360" y="300" width="80" height="40" as="geometry" />
        </mxCell>
        <mxCell id="JMKbWyHFVlR689hvUI58-8" style="edgeStyle=orthogonalEdgeStyle;rounded=0;orthogonalLoop=1;jettySize=auto;html=1;exitX=0.5;exitY=0;exitDx=0;exitDy=0;entryX=0.5;entryY=1;entryDx=0;entryDy=0;fontSize=14;endArrow=classic;endFill=1;startSize=8;endSize=8;sourcePerimeterSpacing=8;targetPerimeterSpacing=8;" parent="1" source="JMKbWyHFVlR689hvUI58-6" target="JMKbWyHFVlR689hvUI58-4" edge="1">
          <mxGeometry relative="1" as="geometry" />
        </mxCell>
        <mxCell id="JMKbWyHFVlR689hvUI58-6" value="$.NonfairSync&lt;br&gt;(C)" style="rounded=0;whiteSpace=wrap;html=1;hachureGap=4;pointerEvents=0;fontSize=14;fillColor=#d5e8d4;strokeColor=#82b366;" parent="1" vertex="1">
          <mxGeometry x="240" y="400" width="120" height="40" as="geometry" />
        </mxCell>
        <mxCell id="JMKbWyHFVlR689hvUI58-9" style="edgeStyle=orthogonalEdgeStyle;rounded=0;orthogonalLoop=1;jettySize=auto;html=1;exitX=0.5;exitY=0;exitDx=0;exitDy=0;fontSize=14;endArrow=classic;endFill=1;startSize=8;endSize=8;sourcePerimeterSpacing=8;targetPerimeterSpacing=8;" parent="1" source="JMKbWyHFVlR689hvUI58-7" edge="1">
          <mxGeometry relative="1" as="geometry">
            <mxPoint x="400" y="340" as="targetPoint" />
          </mxGeometry>
        </mxCell>
        <mxCell id="JMKbWyHFVlR689hvUI58-7" value="$.FairSync&lt;br&gt;(C)" style="rounded=0;whiteSpace=wrap;html=1;hachureGap=4;pointerEvents=0;fontSize=14;fillColor=#d5e8d4;strokeColor=#82b366;" parent="1" vertex="1">
          <mxGeometry x="440" y="400" width="120" height="40" as="geometry" />
        </mxCell>
        <mxCell id="JMKbWyHFVlR689hvUI58-10" value="Lock&lt;br&gt;(I)" style="rounded=0;whiteSpace=wrap;html=1;hachureGap=4;pointerEvents=0;fontSize=14;fillColor=#ffe6cc;strokeColor=#d79b00;" parent="1" vertex="1">
          <mxGeometry x="160" y="200" width="80" height="40" as="geometry" />
        </mxCell>
        <mxCell id="JMKbWyHFVlR689hvUI58-12" style="edgeStyle=orthogonalEdgeStyle;rounded=0;orthogonalLoop=1;jettySize=auto;html=1;exitX=0.5;exitY=0;exitDx=0;exitDy=0;entryX=0.5;entryY=1;entryDx=0;entryDy=0;fontSize=14;endArrow=classic;endFill=1;startSize=8;endSize=8;sourcePerimeterSpacing=8;targetPerimeterSpacing=8;" parent="1" source="JMKbWyHFVlR689hvUI58-11" target="JMKbWyHFVlR689hvUI58-10" edge="1">
          <mxGeometry relative="1" as="geometry" />
        </mxCell>
        <mxCell id="JMKbWyHFVlR689hvUI58-13" style="edgeStyle=orthogonalEdgeStyle;rounded=0;orthogonalLoop=1;jettySize=auto;html=1;exitX=1;exitY=0.5;exitDx=0;exitDy=0;entryX=0;entryY=0.5;entryDx=0;entryDy=0;fontSize=14;endArrow=classic;endFill=1;startSize=8;endSize=8;sourcePerimeterSpacing=8;targetPerimeterSpacing=8;dashed=1;" parent="1" source="JMKbWyHFVlR689hvUI58-11" target="JMKbWyHFVlR689hvUI58-4" edge="1">
          <mxGeometry relative="1" as="geometry" />
        </mxCell>
        <mxCell id="JMKbWyHFVlR689hvUI58-14" value="&lt;font style=&quot;font-size: 12px&quot;&gt;内部引用&lt;/font&gt;" style="edgeLabel;html=1;align=center;verticalAlign=middle;resizable=0;points=[];fontSize=14;" parent="JMKbWyHFVlR689hvUI58-13" vertex="1" connectable="0">
          <mxGeometry x="-0.3143" y="-1" relative="1" as="geometry">
            <mxPoint x="9" y="-11" as="offset" />
          </mxGeometry>
        </mxCell>
        <mxCell id="JMKbWyHFVlR689hvUI58-11" value="ReentrantLock&lt;br&gt;(C)" style="rounded=0;whiteSpace=wrap;html=1;hachureGap=4;pointerEvents=0;fontSize=14;fillColor=#d5e8d4;strokeColor=#82b366;" parent="1" vertex="1">
          <mxGeometry x="145" y="300" width="110" height="40" as="geometry" />
        </mxCell>
      </root>
    </mxGraphModel>
  </diagram>
</mxfile>
